<mxfile host="app.diagrams.net" modified="2023-05-22T03:37:39.502Z" agent="Mozilla/5.0 (Windows NT 10.0; Win64; x64) AppleWebKit/537.36 (KHTML, like Gecko) Chrome/112.0.0.0 Safari/537.36" etag="BXGN0HXhL6CK0jCUJqwl" version="21.2.1" type="github">
  <diagram name="Page-1" id="74e2e168-ea6b-b213-b513-2b3c1d86103e">
    <mxGraphModel dx="1434" dy="796" grid="1" gridSize="10" guides="1" tooltips="1" connect="1" arrows="1" fold="1" page="1" pageScale="1" pageWidth="1100" pageHeight="850" background="none" math="0" shadow="0">
      <root>
        <mxCell id="0" />
        <mxCell id="1" parent="0" />
        <mxCell id="77e6c97f196da883-1" value="对接流程图" style="swimlane;html=1;childLayout=stackLayout;startSize=20;rounded=0;shadow=0;labelBackgroundColor=none;strokeWidth=1;fontFamily=Verdana;fontSize=8;align=center;" parent="1" vertex="1">
          <mxGeometry x="70" y="40" width="490" height="520" as="geometry" />
        </mxCell>
        <mxCell id="77e6c97f196da883-2" value="供金" style="swimlane;html=1;startSize=20;" parent="77e6c97f196da883-1" vertex="1">
          <mxGeometry y="20" width="160" height="500" as="geometry" />
        </mxCell>
        <mxCell id="BJERo8WeIF7b5kkDbJsf-40" value="用户同步" style="rounded=1;whiteSpace=wrap;html=1;shadow=0;labelBackgroundColor=none;strokeWidth=1;fontFamily=Verdana;fontSize=8;align=center;" vertex="1" parent="77e6c97f196da883-2">
          <mxGeometry x="30" y="365" width="75" height="30" as="geometry" />
        </mxCell>
        <mxCell id="BJERo8WeIF7b5kkDbJsf-41" value="企业同步" style="rounded=1;whiteSpace=wrap;html=1;shadow=0;labelBackgroundColor=none;strokeWidth=1;fontFamily=Verdana;fontSize=8;align=center;" vertex="1" parent="77e6c97f196da883-2">
          <mxGeometry x="30" y="430" width="75" height="30" as="geometry" />
        </mxCell>
        <mxCell id="77e6c97f196da883-3" value="总平台" style="swimlane;html=1;startSize=20;" parent="77e6c97f196da883-1" vertex="1">
          <mxGeometry x="160" y="20" width="170" height="500" as="geometry" />
        </mxCell>
        <mxCell id="BJERo8WeIF7b5kkDbJsf-20" value="" style="edgeStyle=orthogonalEdgeStyle;rounded=0;orthogonalLoop=1;jettySize=auto;html=1;" edge="1" parent="77e6c97f196da883-3" source="77e6c97f196da883-8" target="BJERo8WeIF7b5kkDbJsf-5">
          <mxGeometry relative="1" as="geometry" />
        </mxCell>
        <mxCell id="77e6c97f196da883-8" value="用户注册" style="rounded=1;whiteSpace=wrap;html=1;shadow=0;labelBackgroundColor=none;strokeWidth=1;fontFamily=Verdana;fontSize=8;align=center;" parent="77e6c97f196da883-3" vertex="1">
          <mxGeometry x="47.5" y="50" width="75" height="30" as="geometry" />
        </mxCell>
        <mxCell id="BJERo8WeIF7b5kkDbJsf-4" value="提交&lt;br&gt;企业信息&lt;br&gt;（基础信息-待审核）" style="rounded=1;whiteSpace=wrap;html=1;shadow=0;labelBackgroundColor=none;strokeWidth=1;fontFamily=Verdana;fontSize=8;align=center;" vertex="1" parent="77e6c97f196da883-3">
          <mxGeometry x="47.5" y="110" width="75" height="30" as="geometry" />
        </mxCell>
        <mxCell id="BJERo8WeIF7b5kkDbJsf-5" value="审批&lt;br&gt;企业基础信息（基础信息-CA审核中）" style="rounded=1;whiteSpace=wrap;html=1;shadow=0;labelBackgroundColor=none;strokeWidth=1;fontFamily=Verdana;fontSize=8;align=center;" vertex="1" parent="77e6c97f196da883-3">
          <mxGeometry x="47.5" y="170" width="75" height="30" as="geometry" />
        </mxCell>
        <mxCell id="BJERo8WeIF7b5kkDbJsf-25" value="" style="edgeStyle=orthogonalEdgeStyle;rounded=0;orthogonalLoop=1;jettySize=auto;html=1;" edge="1" parent="77e6c97f196da883-3" source="BJERo8WeIF7b5kkDbJsf-21" target="BJERo8WeIF7b5kkDbJsf-23">
          <mxGeometry relative="1" as="geometry" />
        </mxCell>
        <mxCell id="BJERo8WeIF7b5kkDbJsf-21" value="证书回传&lt;br&gt;（基础信息-审核通过）" style="rounded=1;whiteSpace=wrap;html=1;shadow=0;labelBackgroundColor=none;strokeWidth=1;fontFamily=Verdana;fontSize=8;align=center;" vertex="1" parent="77e6c97f196da883-3">
          <mxGeometry x="47.5" y="290" width="75" height="30" as="geometry" />
        </mxCell>
        <mxCell id="BJERo8WeIF7b5kkDbJsf-23" value="附加信息审批&lt;br&gt;（审核通过）" style="rounded=1;whiteSpace=wrap;html=1;shadow=0;labelBackgroundColor=none;strokeWidth=1;fontFamily=Verdana;fontSize=8;align=center;" vertex="1" parent="77e6c97f196da883-3">
          <mxGeometry x="47.5" y="365" width="75" height="30" as="geometry" />
        </mxCell>
        <mxCell id="BJERo8WeIF7b5kkDbJsf-38" value="" style="edgeStyle=orthogonalEdgeStyle;rounded=0;orthogonalLoop=1;jettySize=auto;html=1;entryX=0;entryY=0.25;entryDx=0;entryDy=0;exitX=1;exitY=0.75;exitDx=0;exitDy=0;" edge="1" parent="77e6c97f196da883-3" target="BJERo8WeIF7b5kkDbJsf-18">
          <mxGeometry relative="1" as="geometry">
            <mxPoint x="122.5" y="200" as="sourcePoint" />
            <mxPoint x="212.5" y="252" as="targetPoint" />
            <Array as="points">
              <mxPoint x="123" y="202" />
              <mxPoint x="180" y="202" />
              <mxPoint x="180" y="270" />
              <mxPoint x="213" y="270" />
            </Array>
          </mxGeometry>
        </mxCell>
        <mxCell id="77e6c97f196da883-4" value="CA" style="swimlane;html=1;startSize=20;" parent="77e6c97f196da883-1" vertex="1">
          <mxGeometry x="330" y="20" width="160" height="500" as="geometry" />
        </mxCell>
        <mxCell id="BJERo8WeIF7b5kkDbJsf-10" value="证书申请" style="rounded=1;whiteSpace=wrap;html=1;shadow=0;labelBackgroundColor=none;strokeWidth=1;fontFamily=Verdana;fontSize=8;align=center;" vertex="1" parent="77e6c97f196da883-4">
          <mxGeometry x="42.5" y="170" width="75" height="30" as="geometry" />
        </mxCell>
        <mxCell id="BJERo8WeIF7b5kkDbJsf-17" value="资料上传" style="rounded=1;whiteSpace=wrap;html=1;shadow=0;labelBackgroundColor=none;strokeWidth=1;fontFamily=Verdana;fontSize=8;align=center;" vertex="1" parent="77e6c97f196da883-4">
          <mxGeometry x="42.5" y="230" width="75" height="30" as="geometry" />
        </mxCell>
        <mxCell id="BJERo8WeIF7b5kkDbJsf-18" value="订单状态修改" style="rounded=1;whiteSpace=wrap;html=1;shadow=0;labelBackgroundColor=none;strokeWidth=1;fontFamily=Verdana;fontSize=8;align=center;" vertex="1" parent="77e6c97f196da883-4">
          <mxGeometry x="42.5" y="290" width="75" height="30" as="geometry" />
        </mxCell>
        <mxCell id="BJERo8WeIF7b5kkDbJsf-24" value="个人用户同步" style="rounded=1;whiteSpace=wrap;html=1;shadow=0;labelBackgroundColor=none;strokeWidth=1;fontFamily=Verdana;fontSize=8;align=center;" vertex="1" parent="77e6c97f196da883-4">
          <mxGeometry x="40" y="365" width="75" height="30" as="geometry" />
        </mxCell>
        <mxCell id="BJERo8WeIF7b5kkDbJsf-32" value="外部企业同步" style="rounded=1;whiteSpace=wrap;html=1;shadow=0;labelBackgroundColor=none;strokeWidth=1;fontFamily=Verdana;fontSize=8;align=center;" vertex="1" parent="77e6c97f196da883-4">
          <mxGeometry x="40" y="430" width="75" height="30" as="geometry" />
        </mxCell>
        <mxCell id="BJERo8WeIF7b5kkDbJsf-14" value="" style="edgeStyle=orthogonalEdgeStyle;rounded=0;orthogonalLoop=1;jettySize=auto;html=1;" edge="1" parent="77e6c97f196da883-1" source="BJERo8WeIF7b5kkDbJsf-5" target="BJERo8WeIF7b5kkDbJsf-10">
          <mxGeometry relative="1" as="geometry" />
        </mxCell>
        <mxCell id="BJERo8WeIF7b5kkDbJsf-22" value="" style="edgeStyle=orthogonalEdgeStyle;rounded=0;orthogonalLoop=1;jettySize=auto;html=1;" edge="1" parent="77e6c97f196da883-1" source="BJERo8WeIF7b5kkDbJsf-18" target="BJERo8WeIF7b5kkDbJsf-21">
          <mxGeometry relative="1" as="geometry" />
        </mxCell>
        <mxCell id="BJERo8WeIF7b5kkDbJsf-33" value="" style="edgeStyle=orthogonalEdgeStyle;rounded=0;orthogonalLoop=1;jettySize=auto;html=1;" edge="1" parent="77e6c97f196da883-1" source="BJERo8WeIF7b5kkDbJsf-23" target="BJERo8WeIF7b5kkDbJsf-24">
          <mxGeometry relative="1" as="geometry" />
        </mxCell>
        <mxCell id="BJERo8WeIF7b5kkDbJsf-36" value="" style="edgeStyle=orthogonalEdgeStyle;rounded=0;orthogonalLoop=1;jettySize=auto;html=1;entryX=0;entryY=0.5;entryDx=0;entryDy=0;exitX=1;exitY=0.75;exitDx=0;exitDy=0;" edge="1" parent="77e6c97f196da883-1" source="BJERo8WeIF7b5kkDbJsf-5" target="BJERo8WeIF7b5kkDbJsf-17">
          <mxGeometry relative="1" as="geometry">
            <mxPoint x="293" y="215" as="sourcePoint" />
            <mxPoint x="383" y="215" as="targetPoint" />
            <Array as="points">
              <mxPoint x="283" y="215" />
              <mxPoint x="350" y="215" />
              <mxPoint x="350" y="265" />
            </Array>
          </mxGeometry>
        </mxCell>
        <mxCell id="BJERo8WeIF7b5kkDbJsf-39" value="" style="edgeStyle=orthogonalEdgeStyle;rounded=0;orthogonalLoop=1;jettySize=auto;html=1;entryX=0;entryY=0.25;entryDx=0;entryDy=0;exitX=1;exitY=0.75;exitDx=0;exitDy=0;" edge="1" parent="77e6c97f196da883-1" source="BJERo8WeIF7b5kkDbJsf-23" target="BJERo8WeIF7b5kkDbJsf-32">
          <mxGeometry relative="1" as="geometry">
            <mxPoint x="293" y="410" as="sourcePoint" />
            <mxPoint x="380" y="410" as="targetPoint" />
            <Array as="points">
              <mxPoint x="283" y="410" />
              <mxPoint x="350" y="410" />
              <mxPoint x="350" y="458" />
            </Array>
          </mxGeometry>
        </mxCell>
        <mxCell id="BJERo8WeIF7b5kkDbJsf-42" value="" style="edgeStyle=orthogonalEdgeStyle;rounded=0;orthogonalLoop=1;jettySize=auto;html=1;" edge="1" parent="77e6c97f196da883-1" source="BJERo8WeIF7b5kkDbJsf-23" target="BJERo8WeIF7b5kkDbJsf-40">
          <mxGeometry relative="1" as="geometry" />
        </mxCell>
        <mxCell id="BJERo8WeIF7b5kkDbJsf-43" value="" style="edgeStyle=orthogonalEdgeStyle;rounded=0;orthogonalLoop=1;jettySize=auto;html=1;entryX=1;entryY=0.5;entryDx=0;entryDy=0;" edge="1" parent="1" target="BJERo8WeIF7b5kkDbJsf-41">
          <mxGeometry relative="1" as="geometry">
            <mxPoint x="280" y="450" as="sourcePoint" />
            <mxPoint x="185" y="450" as="targetPoint" />
            <Array as="points">
              <mxPoint x="210" y="450" />
              <mxPoint x="210" y="505" />
            </Array>
          </mxGeometry>
        </mxCell>
        <mxCell id="BJERo8WeIF7b5kkDbJsf-44" value="" style="endArrow=none;html=1;rounded=0;" edge="1" parent="1">
          <mxGeometry width="50" height="50" relative="1" as="geometry">
            <mxPoint x="70" y="400" as="sourcePoint" />
            <mxPoint x="690" y="400" as="targetPoint" />
          </mxGeometry>
        </mxCell>
        <mxCell id="BJERo8WeIF7b5kkDbJsf-45" value="证书" style="text;html=1;strokeColor=none;fillColor=none;align=center;verticalAlign=middle;whiteSpace=wrap;rounded=0;" vertex="1" parent="1">
          <mxGeometry x="610" y="370" width="60" height="30" as="geometry" />
        </mxCell>
        <mxCell id="BJERo8WeIF7b5kkDbJsf-46" value="签章" style="text;html=1;strokeColor=none;fillColor=none;align=center;verticalAlign=middle;whiteSpace=wrap;rounded=0;" vertex="1" parent="1">
          <mxGeometry x="610" y="410" width="60" height="30" as="geometry" />
        </mxCell>
      </root>
    </mxGraphModel>
  </diagram>
</mxfile>
